<?xml version="1.0" encoding="UTF-8" standalone="no"?>
<!-- Created with Inkscape (http://www.inkscape.org/) -->

<svg
   width="475.51431mm"
   height="157.33344mm"
   viewBox="0 0 475.51431 157.33344"
   version="1.1"
   id="svg1"
   xml:space="preserve"
   inkscape:version="1.3.2 (091e20e, 2023-11-25, custom)"
   sodipodi:docname="Logo Ardu Hermanos.svg"
   xmlns:inkscape="http://www.inkscape.org/namespaces/inkscape"
   xmlns:sodipodi="http://sodipodi.sourceforge.net/DTD/sodipodi-0.dtd"
   xmlns="http://www.w3.org/2000/svg"
   xmlns:svg="http://www.w3.org/2000/svg"><sodipodi:namedview
     id="namedview1"
     pagecolor="#ffffff"
     bordercolor="#000000"
     borderopacity="0.25"
     inkscape:showpageshadow="2"
     inkscape:pageopacity="0.0"
     inkscape:pagecheckerboard="0"
     inkscape:deskcolor="#d1d1d1"
     inkscape:document-units="mm"
     inkscape:zoom="0.25858552"
     inkscape:cx="999.66929"
     inkscape:cy="562.67652"
     inkscape:window-width="1920"
     inkscape:window-height="1017"
     inkscape:window-x="-8"
     inkscape:window-y="-8"
     inkscape:window-maximized="1"
     inkscape:current-layer="layer1" /><defs
     id="defs1" /><g
     inkscape:label="Capa 1"
     inkscape:groupmode="layer"
     id="layer1"
     transform="translate(128.18035,179.70884)"><path
       id="path2"
       style="fill:#ffffff;fill-opacity:1;stroke-width:0.35269"
       d="m -49.661426,-179.70743 c -5.873167,0.0955 -8.830468,5.05344 -8.830468,5.05344 l -66.501366,128.193211 c 0,0 -6.45291,8.782547 -0.99477,17.413406 3.52493,5.573887 10.94507,5.97018 10.94507,5.97018 l 74.462114,0.165365 c 0,0 1.489525,0.0026 1.492435,-1.82418 0.07287,-46.882717 -0.331761,-145.937862 -0.331788,-145.937862 0,0 1.018276,-6.83994 -7.545784,-8.7483 -0.957924,-0.21344 -1.856422,-0.29888 -2.695443,-0.28526 z m -6.674511,38.38681 -0.165894,101.327662 -51.907429,-0.331763 z"
       inkscape:export-filename="..\..\..\..\Projects\Ardu Hermanos\public\images\logo\logo_dark.svg"
       inkscape:export-xdpi="96"
       inkscape:export-ydpi="96" /><path
       style="fill:#ffffff;fill-opacity:1;stroke-width:0.35269"
       d="m 2.8032002,-179.62627 c 17.3518508,0.0217 27.4721628,0.18021 43.2710948,0.23453 1.395783,0.005 1.289923,1.28992 1.289923,1.28992 v 14.30642 c -1.05e-4,1.534 -1.319238,1.31924 -1.319238,1.31924 H 18.399567 v 122.454879 c 0,0 18.942023,-0.01244 27.850623,0 1.140143,0.0026 1.055397,1.055396 1.055397,1.055396 0,0 -0.04022,9.803686 -0.02064,15.023637 0.0042,1.112203 -0.976048,1.100402 -0.976048,1.100402 0,0 -29.932947,0.01297 -44.0919381,0 -0.9881129,0 -0.9967648,-0.996765 -0.9967648,-0.996765 V -178.26496 c 0,0 0.016404,-1.36327 1.5830814,-1.36131 z"
       id="path46" /><path
       id="path48"
       style="fill:#ffffff;fill-opacity:1;stroke-width:0.0901393"
       d="m 81.796908,-101.26634 c -4.148376,0.006 -6.567911,0.0492 -10.34505,0.0641 -0.333692,0 -0.308371,0.3524 -0.308371,0.3524 v 3.908766 c 2.6e-5,0.4191 0.315383,0.360415 0.315383,0.360415 h 5.78014 l -0.08292,33.456747 c 0,0 -3.616457,-0.0034 -5.746274,0 -0.272574,0 -0.252333,0.288343 -0.252333,0.288343 0,0 0.0098,2.678536 0.0048,4.104719 0,0.303874 0.233363,0.300646 0.233363,0.300646 0,0 7.156238,0.0034 10.541291,0 0.23622,0 0.23831,-0.272335 0.23831,-0.272335 V -100.8944 c 0,0 -0.004,-0.37246 -0.378486,-0.37195 z m 18.828592,0 c 4.14838,0.006 6.56791,0.0492 10.34505,0.0641 0.33369,0 0.30837,0.3524 0.30837,0.3524 v 3.908766 c -2e-5,0.4191 -0.31538,0.360415 -0.31538,0.360415 h -5.78014 l 0.0829,33.456747 c 0,0 3.61646,-0.0034 5.74627,0 0.27258,0 0.25234,0.288343 0.25234,0.288343 0,0 -0.01,2.678536 -0.005,4.104719 0,0.303874 -0.23336,0.300646 -0.23336,0.300646 0,0 -7.15623,0.0034 -10.54129,0 -0.23622,0 -0.23831,-0.272335 -0.23831,-0.272335 V -100.8944 c 0,0 0.004,-0.37246 0.37849,-0.37195 z" /><path
       id="path62"
       style="fill:#ffffff;fill-opacity:1;stroke-width:0.35269"
       d="m 132.94914,-89.916935 c -1.43361,-0.01376 -3.03694,0.153512 -4.8302,0.540015 -9.92622,2.139368 -10.25877,13.800719 -10.03401,17.379817 0.40839,6.503459 2.90672,10.977748 7.4843,12.963552 9.99196,4.334615 17.10179,-1.702224 17.10179,-1.702224 0,-1.521354 0,-3.042708 0,-4.564062 -1.87412,1.455208 -10.62744,6.879166 -17.33021,0 -1.08037,-2.800165 -1.76389,-1.499314 -2.24896,-7.408333 7.23194,0 14.4639,0 21.69584,0 0,0 2.01975,-17.075521 -11.83855,-17.208765 z m -1.05989,4.045744 c 8.41068,0.215953 7.9375,8.929687 7.9375,8.929687 -5.53421,0 -11.06839,0 -16.6026,0 0,0 1.80559,-9.10582 8.6651,-8.929687 z"
       sodipodi:nodetypes="sssscccccssccs" /><path
       style="fill:#ffffff;fill-opacity:1;stroke-width:0.35269"
       d="m 157.15696,-89.310774 h -4.89479 v 30.823958 h 5.02708 v -17.594792 c 2.68994,-12.722039 9.67933,-8.510772 11.04635,-8.202083 0,-1.719792 0,-3.439583 0,-5.159375 -1.49931,-0.286623 -7.29808,-2.756085 -11.04635,6.482292 z"
       id="path63"
       sodipodi:nodetypes="ccccccccc" /><path
       style="fill:#ffffff;fill-opacity:1;stroke-width:0.35269"
       d="m 178.45592,-84.415983 v -4.696354 h -4.82865 v 30.559375 h 5.02708 v -19.976042 c 0.94809,-7.276041 12.67796,-11.773958 14.35365,0 v 20.042188 h 4.89479 v -18.520833 c -0.0661,-9.326563 14.68438,-13.956771 14.48594,0 v 18.388541 h 4.96094 V -79.05817 c 0.44098,-11.90625 -14.00088,-15.610417 -20.30677,-4.564063 0.15433,-3.241145 -9.81163,-12.501562 -18.58698,-0.79375 z"
       id="path64"
       sodipodi:nodetypes="cccccccccccccccc" /><path
       id="path65"
       style="fill:#ffffff;fill-opacity:1;stroke-width:0.35269"
       d="m 238.41608,-89.897832 c -0.25413,0.0053 -0.51927,0.01588 -0.79684,0.03257 -2.21443,0.11864 -6.21504,0.237411 -10.21541,2.7373 v 5.027083 c 1.21812,-0.681751 2.89947,-2.818817 8.6155,-3.632861 5.10156,-0.392086 4.97742,1.398746 5.97791,1.601973 2.08085,2.947961 1.84658,5.168344 1.67847,6.264222 -5.72127,1.155488 -12.43473,0.723476 -16.17163,4.061777 -1.66121,1.433751 -3.91776,3.859451 -2.80085,10.452576 2.44748,4.781735 4.76292,5.462614 9.72394,5.614141 1.61459,0.646165 7.19127,-1.150594 9.31468,-5.377974 v 4.630209 h 4.82865 v -21.43125 c -0.20127,-1.995858 -0.0716,-5.579401 -3.58013,-7.972134 -1.49736,-0.927259 -2.76241,-2.086822 -6.57429,-2.007632 z m 5.25963,15.866745 v 4.960937 c -0.15433,4.321519 -4.9389,7.187856 -7.2099,7.209896 -4.51995,-0.02196 -7.51858,-1.56546 -6.81302,-6.813021 0.56399,-3.323378 4.63362,-4.000711 7.645,-4.413673 2.85356,-0.380788 3.92123,-0.364913 6.37792,-0.944139 z"
       sodipodi:nodetypes="sccccccccccccccscccccc" /><path
       style="fill:#ffffff;fill-opacity:1;stroke-width:0.35269"
       d="m 262.858,-84.283691 c -0.022,-1.631606 -0.0441,-3.263186 -0.0661,-4.894792 -1.60954,0 -3.2191,0 -4.82864,0 0,10.208498 0,20.417023 0,30.625521 1.6316,0 3.26318,0 4.89479,0 0,-6.239748 0,-12.479523 0,-18.719271 0.47694,-1.834726 0.35856,-4.330911 4.20894,-7.290117 0.86802,-0.463021 4.31575,-2.513542 8.5572,0 1.5875,1.415812 2.77813,3.09618 2.97657,7.025534 0,6.305894 0,12.611814 0,18.917708 1.60954,0 3.2191,0 4.82864,0 0,-6.746875 0,-13.49375 0,-20.240625 0,-1.98374 -0.79594,-8.333105 -5.95643,-10.316845 -2.33606,-0.661458 -4.47365,-1.124479 -8.79409,0 -1.54339,0.572638 -3.15296,1.674416 -5.82083,4.892887 z"
       id="path66"
       sodipodi:nodetypes="ccccccccccccccc" /><path
       id="path67"
       style="fill:#ffffff;fill-opacity:1;stroke-width:0.35269"
       d="m 306.72819,-89.989298 c -0.30371,-0.0026 -0.61759,0.004 -0.94155,0.01693 -2.11582,0.113401 -4.8269,0.226642 -7.9349,2.12598 -1.07903,0.606134 -6.65591,3.725889 -7.00733,12.137231 -0.0867,2.713143 -1.0998,8.072252 3.50985,13.1005 2.70965,3.683952 8.39616,6.111319 16.06672,4.305167 3.56867,-0.988986 8.26161,-3.764227 9.91206,-9.912588 0.99589,-3.824869 1.79361,-14.594681 -5.148,-19.2133 -1.57268,-0.918633 -3.90107,-2.535238 -8.45685,-2.560056 z m -0.80925,4.184253 c 6.36124,0.374835 7.62912,3.461623 8.76485,5.490104 2.38122,5.625756 1.25674,9.862185 0,13.106691 -2.16331,4.920456 -7.1705,5.210704 -9.06923,5.236368 -4.98269,-0.161316 -6.39387,-2.306743 -8.39999,-4.849309 -2.57969,-5.644991 -0.99219,-12.083653 0,-13.958332 3.03371,-4.519374 5.20763,-4.541017 8.70437,-5.025522 z" /><path
       style="fill:#ffffff;fill-opacity:1;stroke-width:0.35269"
       d="m 345.80487,-83.622233 c 0,-1.609539 0,-3.219106 0,-4.828645 -1.4111,-0.926042 -5.13733,-1.91823 -9.78958,-1.190625 -6.15156,0.77171 -8.86354,5.24756 -8.73125,6.879166 -1.19063,5.53421 2.18281,7.628811 5.55625,9.657292 5.99723,2.270998 9.28246,3.15296 9.45885,7.209895 -0.61735,3.219106 -1.83004,3.329332 -6.81302,4.101042 -4.69635,-0.418915 -6.21771,-1.56546 -8.53281,-3.042708 0,1.741831 0,3.483689 0,5.22552 3.54984,1.741832 5.24756,1.89619 8.46667,1.852084 6.72483,-0.08819 10.60537,-2.954523 11.64166,-6.614583 1.30088,-6.217709 -2.35921,-8.334375 -4.6302,-9.723438 -5.31371,-2.778125 -10.36286,-2.711979 -10.3849,-7.739062 1.23473,-4.321519 5.11527,-3.549835 7.0776,-4.034896 3.54984,0.485061 4.91684,1.102439 6.68073,2.248958 z"
       id="path68"
       sodipodi:nodetypes="ccccccccccccccc" /><path
       id="path69"
       style="fill:#ffffff;fill-opacity:1;stroke-width:0.35269"
       d="m 88.696024,-160.50872 -16.536458,43.12708 h 5.622396 l 4.233333,-11.97239 h 18.256255 l 4.56406,11.90625 h 5.55625 l -16.602607,-43.06094 z m 2.513542,5.55625 7.474479,20.83594 H 83.735087 Z" /><path
       style="fill:#ffffff;fill-opacity:1;stroke-width:0.35269"
       d="m 121.01869,-148.18861 h -4.8948 v 30.82396 h 5.02709 v -17.59479 c 2.68994,-12.72204 9.67933,-8.51078 11.04635,-8.20209 0,-1.71979 0,-3.43958 0,-5.15937 -1.49931,-0.28662 -7.29808,-2.75609 -11.04635,6.48229 z"
       id="path70"
       sodipodi:nodetypes="ccccccccc" /><path
       id="path71"
       style="fill:#ffffff;fill-opacity:1;stroke-width:0.35269"
       d="m 158.87675,-162.88997 v 19.05 c -1.77969,-2.63499 -4.22098,-4.67466 -7.72046,-4.92839 -8.28858,-0.65024 -11.68231,3.52811 -14.15005,8.16954 -2.57966,6.15391 -1.85206,12.50645 0,17.07284 3.2489,6.16024 7.49001,6.764 11.73107,6.77273 5.69489,-0.0331 8.54559,-3.43956 10.13944,-5.85391 v 5.15938 h 4.89479 v -45.44219 z m -8.7974,18.05781 c 4.90628,0.28663 6.10857,2.75609 7.37683,4.0349 2.05052,2.31296 1.98437,12.10064 0,15.27349 -2.01401,3.17037 -4.62333,4.75303 -8.22484,4.74853 -4.10374,-0.41214 -5.56181,-2.41196 -6.95357,-4.01473 -2.71198,-5.44391 -1.65364,-11.61553 0,-15.53808 3.12968,-4.14721 4.73805,-3.79645 7.80158,-4.50411 z" /><path
       style="fill:#ffffff;fill-opacity:1;stroke-width:0.35269"
       d="m 193.66946,-122.27643 c 0,1.5875 0,3.175 0,4.7625 1.6316,0 3.26318,0 4.89479,0 0,-10.2085 0,-20.41702 0,-30.62552 -1.63161,0 -3.26319,0 -4.89479,0 0,6.39411 0,12.78819 0,19.18229 -1.05834,6.28386 -4.63021,7.87136 -8.13594,8.13594 -5.20348,-0.0441 -6.57048,-3.32933 -7.67292,-7.67292 0,-6.52639 0,-13.05277 0,-19.57916 -1.56546,0 -3.13089,0 -4.69635,0 0,6.76891 0,13.53785 0,20.30677 0.76068,8.69817 5.35781,11.17864 11.01328,11.01328 5.34678,0.0111 7.12171,-2.02848 9.49193,-5.52318 z"
       id="path72"
       sodipodi:nodetypes="ccccccccccccc" /><path
       id="path73"
       style="fill:#ffffff;fill-opacity:1;stroke:#ffffff;stroke-width:1.353;stroke-dasharray:none;stroke-opacity:1"
       d="m 71.061968,-39.243777 c 0,4.217326 0,8.434626 0,12.651952 0.47543,0 0.950833,0 1.426263,0 0,-1.613694 0,-3.227361 0,-4.841055 0.904346,0 1.808665,0 2.713011,0 0.842725,-0.146632 1.82581,-0.246459 2.949178,-1.702726 0.865267,-1.170781 0.865267,-2.809266 0,-4.634865 -0.778642,-1.000892 -1.30003,-1.183296 -2.406068,-1.389062 -1.560803,-0.02807 -3.12158,-0.05617 -4.682384,-0.08424 z m 1.56681,1.309476 c 0.971682,0.03154 1.662747,-0.124036 2.915073,0.09459 1.448647,0.549169 1.681269,1.262089 1.679999,2.910416 -0.13642,1.212162 -0.623597,1.79287 -2.163181,2.163154 -0.81063,0 -1.621261,0 -2.431891,0 0,-1.722728 0,-3.44543 0,-5.16816 z"
       sodipodi:nodetypes="ccccccccccccccc" /><path
       id="path74"
       style="fill:#ffffff;fill-opacity:1;stroke:#ffffff;stroke-width:1.353;stroke-dasharray:none;stroke-opacity:1"
       d="m 90.763081,-39.213799 c -1.615069,0.0056 -3.230112,0.01111 -4.845182,0.0164 0,4.17822 0,8.356415 0,12.534635 0.451988,0 0.904002,0 1.35599,0 0,-1.758368 0,-3.516762 0,-5.27513 0.562239,0 1.124479,0 1.686718,0 1.455209,0.347266 2.215886,1.901693 2.530078,2.530078 0.551207,0.915009 1.10244,1.830044 1.653646,2.745052 0.589809,0 1.179592,0 1.769401,0 -0.738637,-1.163055 -1.477248,-2.326137 -2.215885,-3.489193 -0.391372,-0.689027 -0.915009,-1.84105 -1.918229,-2.265494 1.769401,-0.407908 2.728515,-1.791441 2.728515,-3.505729 -0.286623,-2.502509 -1.813507,-3.152961 -2.745052,-3.290756 z m -0.876432,1.289843 c 1.300877,0.07718 2.022951,0.832327 2.116667,2.116667 0.03307,1.389063 -0.711068,2.348177 -2.530078,2.530078 -0.683499,0 -1.367023,0 -2.050521,0 0,-1.53789 0,-3.075781 0,-4.613672 0.821319,-0.01111 1.642612,-0.02196 2.463932,-0.03307 z"
       sodipodi:nodetypes="ccccccccccccccccccc" /><path
       id="path75"
       style="fill:#ffffff;fill-opacity:1;stroke:#ffffff;stroke-width:1.353;stroke-dasharray:none;stroke-opacity:1"
       d="m 106.46859,-39.524367 c -2.46343,-2.7e-5 -5.93246,1.636977 -5.91696,6.805268 -0.0233,4.365387 2.6661,6.438927 6.03374,6.431121 3.06361,0.01561 6.08047,-1.956514 6.03375,-6.547908 0.008,-3.398811 -1.41095,-6.657287 -6.15053,-6.688481 z m 0.0465,1.262459 c 3.15069,0 4.60695,2.431786 4.60695,5.472536 0,3.407278 -1.90087,5.238432 -4.55993,5.238432 -2.49894,0 -4.44365,-1.865153 -4.44365,-5.261689 0,-2.800482 1.84507,-5.449279 4.39663,-5.449279 z"
       sodipodi:nodetypes="cccccccccc" /><path
       id="path77"
       style="fill:#ffffff;fill-opacity:1;stroke:#ffffff;stroke-width:1.353;stroke-dasharray:none;stroke-opacity:1"
       d="m 119.72823,-39.197263 v 12.628695 h 4.654 c 2.19038,0 5.63581,-1.584405 5.63581,-6.384634 0,-5.024252 -3.05488,-6.197044 -5.1449,-6.197044 -1.71498,-0.01561 -3.42993,-0.03135 -5.14491,-0.04702 z m 1.52033,1.215946 h 3.1569 c 2.30248,0 4.18632,1.850628 4.18632,5.028115 0,3.082872 -1.845,5.121645 -4.37338,5.121645 h -2.96984 z"
       sodipodi:nodetypes="cccccccccccc" /><path
       style="fill:#ffffff;fill-opacity:1;stroke:#ffffff;stroke-width:1.353;stroke-dasharray:none;stroke-opacity:1"
       d="m 137.01555,-39.230336 c 0.47406,0 0.94808,0 1.42214,0 0,2.866311 0,5.732648 0,8.598958 0,1.985487 1.4093,3.075782 3.37344,3.075782 2.14349,0 3.34036,-1.080241 3.34036,-2.910417 0,-2.899383 0,-5.798793 0,-8.698177 0.49609,0 0.99219,0 1.48828,0 0,2.789158 0,5.57829 0,8.367448 0,2.878375 -2.29859,4.464844 -4.79557,4.464844 -2.42718,0 -4.69636,-0.826797 -4.69636,-4.266407 -0.0441,-2.877343 -0.0882,-5.754687 -0.13229,-8.632031 z"
       id="path78"
       sodipodi:nodetypes="ccccccccccc" /><path
       id="path79"
       style="fill:#ffffff;fill-opacity:1;stroke:#ffffff;stroke-width:1.353;stroke-dasharray:none;stroke-opacity:1"
       d="m 189.6021,-39.524367 c -2.46343,-2.7e-5 -5.93246,1.636977 -5.91696,6.805268 -0.0233,4.365387 2.6661,6.438927 6.03375,6.431121 3.06361,0.01561 6.08046,-1.956514 6.03374,-6.547908 0.008,-3.398811 -1.41094,-6.657287 -6.15053,-6.688481 z m 0.0465,1.262459 c 3.15069,0 4.60695,2.431786 4.60695,5.472536 0,3.407278 -1.90087,5.238432 -4.55993,5.238432 -2.49894,0 -4.44365,-1.865153 -4.44365,-5.261689 0,-2.800482 1.84507,-5.449279 4.39663,-5.449279 z"
       sodipodi:nodetypes="cccccccccc" /><path
       style="fill:#ffffff;fill-opacity:1;stroke:#ffffff;stroke-width:1.353;stroke-dasharray:none;stroke-opacity:1"
       d="m 244.99862,-39.230336 c 0.47406,0 0.94809,0 1.42214,0 0,2.866311 0,5.732648 0,8.598958 0,1.985487 1.4093,3.075782 3.37344,3.075782 2.14349,0 3.34036,-1.080241 3.34036,-2.910417 0,-2.899383 0,-5.798793 0,-8.698177 0.4961,0 0.99219,0 1.48828,0 0,2.789158 0,5.57829 0,8.367448 0,2.878375 -2.29859,4.464844 -4.79557,4.464844 -2.42718,0 -4.69635,-0.826797 -4.69635,-4.266407 -0.0441,-2.877343 -0.0882,-5.754687 -0.1323,-8.632031 z"
       id="path80"
       sodipodi:nodetypes="ccccccccccc" /><path
       id="path81"
       style="fill:#ffffff;fill-opacity:1;stroke:#ffffff;stroke-width:1.353;stroke-dasharray:none;stroke-opacity:1"
       d="m 323.34897,-39.524367 c -2.46343,-2.7e-5 -5.93246,1.636977 -5.91696,6.805268 -0.0233,4.365387 2.66611,6.438927 6.03375,6.431121 3.06361,0.01561 6.08047,-1.956514 6.03374,-6.547908 0.008,-3.398811 -1.41094,-6.657287 -6.15053,-6.688481 z m 0.0465,1.262459 c 3.15068,0 4.60695,2.431786 4.60695,5.472536 0,3.407278 -1.90088,5.238432 -4.55994,5.238432 -2.49894,0 -4.44365,-1.865153 -4.44365,-5.261689 0,-2.800482 1.84507,-5.449279 4.39664,-5.449279 z"
       sodipodi:nodetypes="cccccccccc" /><path
       style="fill:#ffffff;fill-opacity:1;stroke:#ffffff;stroke-width:1.353;stroke-dasharray:none;stroke-opacity:1"
       d="m 162.99256,-37.419818 c -0.70938,-0.413147 -1.18489,-0.966629 -3.39098,-0.818515 -2.10683,0 -4.56031,1.771676 -4.56031,5.682826 0,3.696097 2.72582,5.00462 4.70061,5.00462 1.09136,0 1.9956,-0.02328 3.27404,-0.841904 v 1.473332 c -1.676,0.514483 -2.74376,0.561261 -3.76515,0.561261 -3.27563,0 -5.6828,-2.35413 -5.6828,-6.197309 0,-3.134572 1.91373,-6.805374 5.40218,-6.805374 0.98668,-0.198438 2.60009,-0.109008 4.02241,0.420952 z"
       id="path82"
       sodipodi:nodetypes="ccccccccccc" /><path
       style="fill:#ffffff;fill-opacity:1;stroke:#ffffff;stroke-width:1.353;stroke-dasharray:none;stroke-opacity:1"
       d="m 311.02693,-37.419818 c -0.70938,-0.413147 -1.18488,-0.966629 -3.39098,-0.818515 -2.10682,0 -4.56031,1.771676 -4.56031,5.682826 0,3.696097 2.72582,5.00462 4.70062,5.00462 1.09135,0 1.99559,-0.02328 3.27403,-0.841904 v 1.473332 c -1.676,0.514483 -2.74375,0.561261 -3.76515,0.561261 -3.27562,0 -5.6828,-2.35413 -5.6828,-6.197309 0,-3.134572 1.91373,-6.805374 5.40218,-6.805374 0.98669,-0.198438 2.60009,-0.109008 4.02241,0.420952 z"
       id="path83"
       sodipodi:nodetypes="ccccccccccc" /><path
       style="fill:#ffffff;fill-opacity:1;stroke:#ffffff;stroke-width:1.353;stroke-dasharray:none;stroke-opacity:1"
       d="m 209.49485,-37.444398 v -1.488282 c -0.92477,-0.431085 -1.95966,-0.698526 -2.98236,-0.548666 -1.17591,0.07186 -2.18374,0.216429 -3.24871,1.281404 -0.4658,0.465799 -1.04328,1.240604 -1.04328,2.076899 0,1.159272 1.02714,2.140929 1.28884,2.402629 0.50554,0.505539 1.91532,1.180121 3.35904,2.013664 0.93054,0.537263 1.41875,0.862409 1.70948,1.630521 0.25307,0.784093 -0.0282,1.753764 -0.79804,2.136061 -1.12847,0.65151 -2.49552,0.521388 -3.66488,0.125095 -0.60983,-0.214895 -1.18806,-0.509535 -1.7473,-0.83193 v 1.719792 c 1.53082,0.512392 3.18603,0.65749 4.78628,0.466249 1.19113,-0.220372 1.52098,-0.521944 2.13447,-1.021107 0.81214,-0.722233 0.70718,-1.598136 0.70718,-2.51153 0,-0.464503 -0.21891,-1.103048 -0.64037,-1.624595 -0.55962,-0.578882 -1.66124,-1.238911 -2.51322,-1.730798 -0.72075,-0.364014 -1.3629,-0.699691 -2.13815,-1.147287 -0.48922,-0.282442 -0.92792,-0.789648 -0.92792,-1.844569 0.0373,-0.642302 0.67061,-1.460209 1.4057,-1.730189 1.17459,-0.527871 2.56609,-0.361395 3.668,0.268949 0.21836,0.113215 0.43225,0.234738 0.64524,0.35769 z"
       id="path84"
       sodipodi:nodetypes="cccccccccccccccccccccc" /><path
       style="fill:#ffffff;fill-opacity:1;stroke:#ffffff;stroke-width:1.353;stroke-dasharray:none;stroke-opacity:1"
       d="m 343.25191,-37.444398 v -1.488282 c -0.92477,-0.431085 -1.95966,-0.698526 -2.98236,-0.548666 -1.17591,0.07186 -2.18374,0.216429 -3.24871,1.281404 -0.4658,0.465799 -1.04328,1.240604 -1.04328,2.076899 0,1.159272 1.02714,2.140929 1.28884,2.402629 0.50554,0.505539 1.91532,1.180121 3.35904,2.013664 0.93054,0.537263 1.41875,0.862409 1.70948,1.630521 0.25307,0.784093 -0.0282,1.753764 -0.79804,2.136061 -1.12848,0.65151 -2.49552,0.521388 -3.66488,0.125095 -0.60983,-0.214895 -1.18806,-0.509535 -1.74731,-0.83193 v 1.719792 c 1.53083,0.512392 3.18604,0.65749 4.78629,0.466249 1.19113,-0.220372 1.52098,-0.521944 2.13447,-1.021107 0.81214,-0.722233 0.70718,-1.598136 0.70718,-2.51153 0,-0.464503 -0.21891,-1.103048 -0.64037,-1.624595 -0.55962,-0.578882 -1.66124,-1.238911 -2.51322,-1.730798 -0.72075,-0.364014 -1.3629,-0.699691 -2.13815,-1.147287 -0.48922,-0.282442 -0.92792,-0.789648 -0.92792,-1.844569 0.0373,-0.642302 0.67061,-1.460209 1.4057,-1.730189 1.17459,-0.527871 2.56609,-0.361395 3.668,0.268949 0.21836,0.113215 0.43225,0.234738 0.64524,0.35769 z"
       id="path85"
       sodipodi:nodetypes="cccccccccccccccccccccc" /><path
       style="fill:#ffffff;fill-opacity:1;stroke:#ffffff;stroke-width:1.353;stroke-dasharray:none;stroke-opacity:1"
       d="m 169.02617,-38.004468 h 3.60145 v 11.435794 h 1.4967 v -11.412405 h 3.74176 v -1.286245 h -8.81655 z"
       id="path86" /><path
       id="path87"
       style="fill:#ffffff;fill-opacity:1;stroke:#ffffff;stroke-width:1.353;stroke-dasharray:none;stroke-opacity:1"
       d="m 232.05161,-39.524367 c -3.56248,0.01561 -6.057,2.509229 -6.057,6.641438 0,4.085431 2.03158,6.571695 5.82343,6.571695 0.56507,0.680111 1.1535,1.266692 1.80041,1.847426 0.41507,0.415065 1.3798,1.063771 2.10478,1.262446 0.81849,0.15203 1.9761,0.210476 2.66597,0 v -1.379736 c -0.83214,0.274797 -1.73604,0.590881 -2.75952,0 -0.57873,-0.411056 -1.49072,-0.997505 -1.96422,-1.917197 2.65594,0 4.41989,-3.56063 4.41989,-6.197547 0,-3.89046 -1.98427,-6.828525 -6.03374,-6.828525 z m 0,1.379749 c 3.51142,0 4.56044,2.602574 4.56044,5.448776 0,3.401113 -1.8024,5.074629 -4.81777,5.074629 -2.34728,0 -4.27935,-1.665446 -4.27935,-5.238459 0,-3.581162 2.08584,-5.284946 4.53668,-5.284946 z"
       sodipodi:nodetypes="cccccccccccccccc" /><path
       style="fill:#ffffff;fill-opacity:1;stroke:#ffffff;stroke-width:1.353;stroke-dasharray:none;stroke-opacity:1"
       d="m 262.43017,-37.981079 h -1.19269 v -1.216078 h 3.8821 v 1.192689 h -1.26286 v 10.336635 h 1.28625 v 1.028991 h -3.90549 v -1.028991 h 1.1693 z"
       id="path88" /><path
       style="fill:#ffffff;fill-opacity:1;stroke:#ffffff;stroke-width:1.353;stroke-dasharray:none;stroke-opacity:1"
       d="m 292.92562,-37.981079 h -1.19269 v -1.216078 h 3.8821 v 1.192689 h -1.26286 v 10.336635 h 1.28625 v 1.028991 h -3.90549 v -1.028991 h 1.1693 z"
       id="path89" /><path
       style="fill:#ffffff;fill-opacity:1;stroke:#ffffff;stroke-width:1.353;stroke-dasharray:none;stroke-opacity:1"
       d="m 271.85476,-26.662231 h 1.47333 v -10.383414 l 4.67723,10.406803 h 0.74834 l 4.70059,-10.47697 v 10.47697 h 1.42655 v -12.534926 h -1.8475 l -4.63042,10.219716 -4.60706,-10.196353 h -1.87089 z"
       id="path90" /></g></svg>
