<?xml version="1.0" encoding="UTF-8" standalone="no"?>
<!-- Created with Inkscape (http://www.inkscape.org/) -->

<svg
   version="1.1"
   id="svg1"
   width="3464"
   height="2911"
   viewBox="0 0 3464 2911"
   sodipodi:docname="ARDU HERMANOS - Logo_Mesa de trabajo 1 copia 15.svg"
   inkscape:version="1.3.2 (091e20e, 2023-11-25, custom)"
   inkscape:export-filename="..\..\..\..\Projects\Ardu Hermanos\public\images\logo\logo-3.svg"
   inkscape:export-xdpi="96"
   inkscape:export-ydpi="96"
   xml:space="preserve"
   xmlns:inkscape="http://www.inkscape.org/namespaces/inkscape"
   xmlns:sodipodi="http://sodipodi.sourceforge.net/DTD/sodipodi-0.dtd"
   xmlns="http://www.w3.org/2000/svg"
   xmlns:svg="http://www.w3.org/2000/svg"><defs
     id="defs1" /><sodipodi:namedview
     id="namedview1"
     pagecolor="#ffffff"
     bordercolor="#000000"
     borderopacity="0.25"
     inkscape:showpageshadow="2"
     inkscape:pageopacity="0.0"
     inkscape:pagecheckerboard="0"
     inkscape:deskcolor="#d1d1d1"
     showguides="false"
     inkscape:zoom="0.35355339"
     inkscape:cx="1446.7405"
     inkscape:cy="1378.8582"
     inkscape:window-width="1920"
     inkscape:window-height="1017"
     inkscape:window-x="-8"
     inkscape:window-y="-8"
     inkscape:window-maximized="1"
     inkscape:current-layer="g1" /><g
     inkscape:groupmode="layer"
     inkscape:label="Image"
     id="g1"><path
       id="path2"
       style="fill:#5980ff;fill-opacity:1;stroke-width:1.333"
       d="m 1130.8242,412.25781 c -22.1978,0.3608 -33.375,19.09961 -33.375,19.09961 L 846.10547,915.86719 c 0,0 -24.38896,33.19388 -3.75977,65.81445 13.32258,21.06666 41.36719,22.56446 41.36719,22.56446 l 281.43161,0.625 c 0,0 5.6297,0.01 5.6407,-6.89454 0.2754,-177.19452 -1.2539,-551.57617 -1.254,-551.57617 0,0 3.8486,-25.85176 -28.5195,-33.06445 -3.6205,-0.8067 -7.0164,-1.12963 -10.1875,-1.07813 z m -25.2265,145.08399 -0.627,382.9707 -196.18554,-1.25391 z" /><path
       style="fill:#121d2f;fill-opacity:1;stroke-width:1.333"
       d="m 1329.1157,412.56455 c 65.5818,0.082 103.8318,0.6811 163.5443,0.8864 5.2754,0.018 4.8753,4.8753 4.8753,4.8753 v 54.0715 c -4e-4,5.7978 -4.9861,4.9861 -4.9861,4.9861 h -104.4866 v 462.8216 c 0,0 71.5919,-0.047 105.2622,0 4.3092,0.01 3.9889,3.9889 3.9889,3.9889 0,0 -0.152,37.0533 -0.078,56.78225 0.016,4.2036 -3.689,4.159 -3.689,4.159 0,0 -113.1324,0.049 -166.6467,0 -3.7346,0 -3.7673,-3.7673 -3.7673,-3.7673 V 417.70965 c 0,0 0.062,-5.1525 5.9833,-5.1451 z"
       id="path46" /><path
       id="path48"
       style="fill:#121d2f;fill-opacity:1;stroke-width:0.340684"
       d="m 1627.6746,708.72805 c -15.6789,0.022 -24.8236,0.1861 -39.0994,0.2423 -1.2612,0 -1.1655,1.3319 -1.1655,1.3319 v 14.7733 c 10e-5,1.584 1.192,1.3622 1.192,1.3622 h 21.8462 l -0.3134,126.4507 c 0,0 -13.6685,-0.013 -21.7182,0 -1.0302,0 -0.9537,1.0898 -0.9537,1.0898 0,0 0.037,10.1236 0.018,15.5139 0,1.1485 0.882,1.1363 0.882,1.1363 0,0 27.0472,0.013 39.8411,0 0.8928,0 0.9007,-1.0293 0.9007,-1.0293 v -159.4653 c 0,0 -0.015,-1.4077 -1.4305,-1.4058 z m 71.1632,0 c 15.6789,0.022 24.8236,0.1861 39.0994,0.2423 1.2612,0 1.1655,1.3319 1.1655,1.3319 v 14.7733 c -10e-5,1.584 -1.192,1.3622 -1.192,1.3622 h -21.8462 l 0.3134,126.4507 c 0,0 13.6685,-0.013 21.7182,0 1.0302,0 0.9537,1.0898 0.9537,1.0898 0,0 -0.037,10.1236 -0.018,15.5139 0,1.1485 -0.882,1.1363 -0.882,1.1363 0,0 -27.0472,0.013 -39.8411,0 -0.8928,0 -0.9007,-1.0293 -0.9007,-1.0293 v -159.4653 c 0,0 0.015,-1.4077 1.4305,-1.4058 z" /><path
       id="path62"
       style="fill:#121d2f;fill-opacity:1;stroke-width:1.333"
       d="m 1821.0059,751.62345 c -5.4184,-0.052 -11.4782,0.5802 -18.2559,2.041 -37.5164,8.0858 -38.7733,52.1602 -37.9238,65.6875 1.5435,24.58 10.986,41.4907 28.2871,48.9961 37.7649,16.3828 64.6367,-6.4336 64.6367,-6.4336 0,-5.75 0,-11.5 0,-17.25 -7.0833,5.5 -40.1667,26 -65.5,0 -4.0833,-10.5833 -6.6667,-5.6667 -8.5,-28 27.3333,0 54.6667,0 82,0 0,0 7.6337,-64.5374 -44.7441,-65.041 z m -4.0059,15.291 c 31.7884,0.8162 30,33.75 30,33.75 -20.9167,0 -41.8333,0 -62.75,0 0,0 6.8243,-34.4157 32.75,-33.75 z"
       sodipodi:nodetypes="sssscccccssccs" /><path
       style="fill:#121d2f;fill-opacity:1;stroke-width:1.333"
       d="M 1912.5,753.91445 H 1894 v 116.5 h 19 v -66.5 c 10.1667,-48.0833 36.5833,-32.1667 41.75,-31 0,-6.5 0,-13 0,-19.5 -5.6667,-1.0833 -27.5833,-10.4167 -41.75,24.5 z"
       id="path63"
       sodipodi:nodetypes="ccccccccc" /><path
       style="fill:#121d2f;fill-opacity:1;stroke-width:1.333"
       d="m 1993,772.41445 v -17.75 h -18.25 v 115.5 h 19 v -75.5 c 3.5833,-27.5 47.9167,-44.5 54.25,0 v 75.75 h 18.5 v -70 c -0.25,-35.25 55.5,-52.75 54.75,0 v 69.5 H 2140 v -77.25 c 1.6667,-45 -52.9167,-59 -76.75,-17.25 0.5833,-12.25 -37.0833,-47.25 -70.25,-3 z"
       id="path64"
       sodipodi:nodetypes="cccccccccccccccc" /><path
       id="path65"
       style="fill:#121d2f;fill-opacity:1;stroke-width:1.333"
       d="m 2219.6211,751.69565 c -0.9605,0.02 -1.9626,0.06 -3.0117,0.1231 -8.3695,0.4484 -23.4899,0.8973 -38.6094,10.3457 v 19 c 4.6039,-2.5767 10.9586,-10.6538 32.5625,-13.7305 19.2815,-1.4819 18.8123,5.2866 22.5937,6.0547 7.8646,11.1419 6.9792,19.5339 6.3438,23.6758 -21.6237,4.3672 -46.9974,2.7344 -61.1211,15.3516 -6.2786,5.4189 -14.8073,14.5869 -10.5859,39.5058 9.2503,18.0727 18.0016,20.6461 36.7519,21.2188 6.1024,2.4422 27.1796,-4.3487 35.2051,-20.3262 v 17.5 H 2258 v -81 c -0.7607,-7.5434 -0.2706,-21.0875 -13.5312,-30.1309 -5.6593,-3.5046 -10.4406,-7.8872 -24.8477,-7.5879 z m 19.8789,59.9688 v 18.75 c -0.5833,16.3333 -18.6667,27.1667 -27.25,27.25 -17.0833,-0.083 -28.4167,-5.9167 -25.75,-25.75 2.1316,-12.5608 17.5129,-15.1208 28.8945,-16.6816 10.7851,-1.4392 14.8204,-1.3792 24.1055,-3.5684 z"
       sodipodi:nodetypes="sccccccccccccccscccccc" /><path
       style="fill:#121d2f;fill-opacity:1;stroke-width:1.333"
       d="m 2312,772.91445 c -0.083,-6.1667 -0.1667,-12.3333 -0.25,-18.5 -6.0833,0 -12.1667,0 -18.25,0 0,38.5833 0,77.1667 0,115.75 6.1667,0 12.3333,0 18.5,0 0,-23.5833 0,-47.1667 0,-70.75 1.8026,-6.9344 1.3552,-16.3688 15.9078,-27.5532 3.2807,-1.75 16.3115,-9.5 32.3422,0 6,5.3511 10.5,11.7021 11.25,26.5532 0,23.8333 0,47.6667 0,71.5 6.0833,0 12.1667,0 18.25,0 0,-25.5 0,-51 0,-76.5 0,-7.4976 -3.0083,-31.4952 -22.5125,-38.9928 -8.8292,-2.5 -16.9083,-4.25 -33.2375,0 -5.8333,2.1643 -11.9167,6.3285 -22,18.4928 z"
       id="path66"
       sodipodi:nodetypes="ccccccccccccccc" /><path
       id="path67"
       style="fill:#121d2f;fill-opacity:1;stroke-width:1.333"
       d="m 2477.8086,751.34995 c -1.1479,-0.01 -2.3342,0.015 -3.5586,0.064 -7.9968,0.4286 -18.2434,0.8566 -29.9902,8.0352 -4.0782,2.2909 -25.1562,14.0821 -26.4844,45.873 -0.3277,10.2544 -4.1567,30.5093 13.2656,49.5137 10.2412,13.9236 31.7335,23.0979 60.7246,16.2715 13.4879,-3.7379 31.225,-14.227 37.4629,-37.4649 3.764,-14.4562 6.779,-55.161 -19.457,-72.6172 -5.944,-3.472 -14.7442,-9.582 -31.9629,-9.6758 z m -3.0586,15.8145 c 24.0425,1.4167 28.8345,13.0833 33.127,20.75 8.9999,21.2627 4.7499,37.2744 0,49.5371 -8.1763,18.597 -27.1011,19.694 -34.2774,19.791 -18.8322,-0.6097 -24.1658,-8.7184 -31.748,-18.3281 -9.75,-21.3354 -3.75,-45.6705 0,-52.7559 11.466,-17.0811 19.6824,-17.1629 32.8984,-18.9941 z" /><path
       style="fill:#121d2f;fill-opacity:1;stroke-width:1.333"
       d="m 2625.5,775.41445 c 0,-6.0833 0,-12.1667 0,-18.25 -5.3333,-3.5 -19.4167,-7.25 -37,-4.5 -23.25,2.9167 -33.5,19.8333 -33,26 -4.5,20.9167 8.25,28.8333 21,36.5 22.6667,8.5833 35.0833,11.9167 35.75,27.25 -2.3333,12.1667 -6.9167,12.5833 -25.75,15.5 -17.75,-1.5833 -23.5,-5.9167 -32.25,-11.5 0,6.5833 0,13.1667 0,19.75 13.4167,6.5833 19.8333,7.1667 32,7 25.4167,-0.3333 40.0833,-11.1667 44,-25 4.9167,-23.5 -8.9167,-31.5 -17.5,-36.75 -20.0833,-10.5 -39.1667,-10.25 -39.25,-29.25 4.6667,-16.3333 19.3333,-13.4167 26.75,-15.25 13.4167,1.8333 18.5833,4.1667 25.25,8.5 z"
       id="path68"
       sodipodi:nodetypes="ccccccccccccccc" /><path
       id="path69"
       style="fill:#121d2f;fill-opacity:1;stroke-width:1.333"
       d="m 1653.75,484.81985 -62.5,163 h 21.25 l 16,-45.25 h 69 l 17.25,45 h 21 l -62.75,-162.75 z m 9.5,21 28.25,78.75 H 1635 Z" /><path
       style="fill:#121d2f;fill-opacity:1;stroke-width:1.333"
       d="m 1775.9144,531.38405 h -18.5 v 116.5 h 19 v -66.5 c 10.1667,-48.0833 36.5833,-32.1667 41.75,-31 0,-6.5 0,-13 0,-19.5 -5.6667,-1.0833 -27.5833,-10.4167 -41.75,24.5 z"
       id="path70"
       sodipodi:nodetypes="ccccccccc" /><path
       id="path71"
       style="fill:#121d2f;fill-opacity:1;stroke-width:1.333"
       d="m 1919,475.81985 v 72 c -6.7264,-9.959 -15.9533,-17.668 -29.1797,-18.627 -31.3269,-2.4576 -44.1536,13.3346 -53.4805,30.877 -9.7499,23.2589 -6.9999,47.2685 0,64.5273 12.2793,23.2828 28.3087,25.5647 44.3379,25.5977 21.524,-0.1251 32.2983,-12.9999 38.3223,-22.125 v 19.5 h 18.5 v -171.75 z m -33.25,68.25 c 18.5434,1.0833 23.0875,10.4167 27.8809,15.25 7.75,8.7419 7.5,45.7347 0,57.7266 -7.612,11.9825 -17.474,17.9642 -31.086,17.9472 -15.5102,-1.5577 -21.021,-9.1161 -26.2812,-15.1738 -10.25,-20.5754 -6.25,-43.9012 0,-58.7266 11.8287,-15.6745 17.9076,-14.3488 29.4863,-17.0234 z" /><path
       style="fill:#121d2f;fill-opacity:1;stroke-width:1.333"
       d="m 2050.5,629.31985 c 0,6 0,12 0,18 6.1667,0 12.3333,0 18.5,0 0,-38.5833 0,-77.1667 0,-115.75 -6.1667,0 -12.3333,0 -18.5,0 0,24.1667 0,48.3333 0,72.5 -4,23.75 -17.5,29.75 -30.75,30.75 -19.6667,-0.1667 -24.8333,-12.5833 -29,-29 0,-24.6667 0,-49.3333 0,-74 -5.9167,0 -11.8333,0 -17.75,0 0,25.5833 0,51.1667 0,76.75 2.875,32.875 20.25,42.25 41.625,41.625 20.2083,0.042 26.9167,-7.6667 35.875,-20.875 z"
       id="path72"
       sodipodi:nodetypes="ccccccccccccc" /><path
       id="path73"
       style="fill:#5980ff;fill-opacity:1;stroke-width:1.333"
       d="m 1587.1016,943.14405 c 0,15.9395 0,31.8789 0,47.8184 1.7969,0 3.5937,0 5.3906,0 0,-6.099 0,-12.1979 0,-18.2969 3.418,0 6.8359,0 10.2539,0 3.1851,-0.5542 6.9007,-0.9315 11.1465,-6.4355 3.2703,-4.425 3.2703,-10.6177 0,-17.5176 -2.9429,-3.7829 -4.9135,-4.4723 -9.0938,-5.25 -5.8991,-0.1061 -11.7981,-0.2123 -17.6972,-0.3184 z m 5.9218,4.9492 c 3.6725,0.1192 6.2844,-0.4688 11.0176,0.3575 5.4752,2.0756 6.3544,4.7701 6.3496,11 -0.5156,4.5814 -2.3569,6.7762 -8.1758,8.1757 -3.0638,0 -6.1276,0 -9.1914,0 0,-6.5111 0,-13.0221 0,-19.5332 z"
       sodipodi:nodetypes="ccccccccccccccc" /><path
       id="path74"
       style="fill:#5980ff;fill-opacity:1;stroke-width:1.333"
       d="m 1661.5625,943.25735 c -6.1042,0.021 -12.2083,0.042 -18.3125,0.062 0,15.7917 0,31.5833 0,47.375 1.7083,0 3.4167,0 5.125,0 0,-6.6458 0,-13.2917 0,-19.9375 2.125,0 4.25,0 6.375,0 5.5,1.3125 8.375,7.1875 9.5625,9.5625 2.0833,3.4583 4.1667,6.9167 6.25,10.375 2.2292,0 4.4583,0 6.6875,0 -2.7917,-4.3958 -5.5833,-8.7917 -8.375,-13.1875 -1.4792,-2.6042 -3.4583,-6.9583 -7.25,-8.5625 6.6875,-1.5417 10.3125,-6.7708 10.3125,-13.25 -1.0833,-9.4583 -6.8542,-11.9167 -10.375,-12.4375 z m -3.3125,4.875 c 4.9167,0.2917 7.6458,3.1458 8,8 0.125,5.25 -2.6875,8.875 -9.5625,9.5625 -2.5833,0 -5.1667,0 -7.75,0 0,-5.8125 0,-11.625 0,-17.4375 3.1042,-0.042 6.2083,-0.083 9.3125,-0.125 z"
       sodipodi:nodetypes="ccccccccccccccccccc" /><path
       id="path75"
       style="fill:#5980ff;fill-opacity:1;stroke-width:1.333"
       d="m 1720.9219,942.08355 c -9.3106,-10e-5 -22.4219,6.187 -22.3633,25.7207 -0.088,16.4991 10.0766,24.3361 22.8047,24.3066 11.579,0.059 22.9813,-7.3947 22.8047,-24.748 0.03,-12.8459 -5.3327,-25.1614 -23.2461,-25.2793 z m 0.1758,4.7715 c 11.9081,0 17.4121,9.191 17.4121,20.6836 0,12.8779 -7.1844,19.7988 -17.2344,19.7988 -9.4448,0 -16.7949,-7.0494 -16.7949,-19.8867 0,-10.5845 6.9735,-20.5957 16.6172,-20.5957 z"
       sodipodi:nodetypes="cccccccccc" /><path
       id="path77"
       style="fill:#5980ff;fill-opacity:1;stroke-width:1.333"
       d="m 1771.0371,943.31985 v 47.7305 h 17.5899 c 8.2786,0 21.3007,-5.9883 21.3007,-24.1309 0,-18.9893 -11.546,-23.4219 -19.4453,-23.4219 -6.4818,-0.059 -12.9635,-0.1185 -19.4453,-0.1777 z m 5.7461,4.5957 h 11.9316 c 8.7023,0 15.8223,6.9945 15.8223,19.0039 0,11.6518 -6.9732,19.3574 -16.5293,19.3574 h -11.2246 z"
       sodipodi:nodetypes="cccccccccccc" /><path
       style="fill:#5980ff;fill-opacity:1;stroke-width:1.333"
       d="m 1836.375,943.19485 c 1.7917,0 3.5833,0 5.375,0 0,10.8333 0,21.6667 0,32.5 0,7.5042 5.3265,11.625 12.75,11.625 8.1014,0 12.625,-4.0828 12.625,-11 0,-10.9583 0,-21.9167 0,-32.875 1.875,0 3.75,0 5.625,0 0,10.5417 0,21.0833 0,31.625 0,10.8789 -8.6876,16.875 -18.125,16.875 -9.1736,0 -17.75,-3.1249 -17.75,-16.125 -0.1667,-10.875 -0.3333,-21.75 -0.5,-32.625 z"
       id="path78"
       sodipodi:nodetypes="ccccccccccc" /><path
       id="path79"
       style="fill:#5980ff;fill-opacity:1;stroke-width:1.333"
       d="m 2035.1273,942.08355 c -9.3106,-10e-5 -22.4219,6.187 -22.3633,25.7207 -0.088,16.4991 10.0766,24.3361 22.8047,24.3066 11.579,0.059 22.9813,-7.3947 22.8047,-24.748 0.03,-12.8459 -5.3327,-25.1614 -23.2461,-25.2793 z m 0.1758,4.7715 c 11.9081,0 17.4121,9.191 17.4121,20.6836 0,12.8779 -7.1844,19.7988 -17.2344,19.7988 -9.4448,0 -16.7949,-7.0494 -16.7949,-19.8867 0,-10.5845 6.9735,-20.5957 16.6172,-20.5957 z"
       sodipodi:nodetypes="cccccccccc" /><path
       style="fill:#5980ff;fill-opacity:1;stroke-width:1.333"
       d="m 2244.5,943.19485 c 1.7917,0 3.5833,0 5.375,0 0,10.8333 0,21.6667 0,32.5 0,7.5042 5.3265,11.625 12.75,11.625 8.1014,0 12.625,-4.0828 12.625,-11 0,-10.9583 0,-21.9167 0,-32.875 1.875,0 3.75,0 5.625,0 0,10.5417 0,21.0833 0,31.625 0,10.8789 -8.6876,16.875 -18.125,16.875 -9.1736,0 -17.75,-3.1249 -17.75,-16.125 -0.1667,-10.875 -0.3333,-21.75 -0.5,-32.625 z"
       id="path80"
       sodipodi:nodetypes="ccccccccccc" /><path
       id="path81"
       style="fill:#5980ff;fill-opacity:1;stroke-width:1.333"
       d="m 2540.6273,942.08355 c -9.3106,-10e-5 -22.4219,6.187 -22.3633,25.7207 -0.088,16.4991 10.0766,24.3361 22.8047,24.3066 11.579,0.059 22.9813,-7.3947 22.8047,-24.748 0.03,-12.8459 -5.3327,-25.1614 -23.2461,-25.2793 z m 0.1758,4.7715 c 11.9081,0 17.4121,9.191 17.4121,20.6836 0,12.8779 -7.1844,19.7988 -17.2344,19.7988 -9.4448,0 -16.7949,-7.0494 -16.7949,-19.8867 0,-10.5845 6.9735,-20.5957 16.6172,-20.5957 z"
       sodipodi:nodetypes="cccccccccc" /><path
       style="fill:#5980ff;fill-opacity:1;stroke-width:1.333"
       d="m 1934.5558,950.03775 c -2.6811,-1.5615 -4.4783,-3.6534 -12.8163,-3.0936 -7.9628,0 -17.2358,6.6961 -17.2358,21.4784 0,13.9695 10.3023,18.9151 17.7661,18.9151 4.1248,0 7.5424,-0.088 12.3743,-3.182 v 5.5685 c -6.3345,1.9445 -10.3701,2.1213 -14.2305,2.1213 -12.3803,0 -21.4783,-8.8975 -21.4783,-23.4229 0,-11.8472 7.233,-25.7211 20.4177,-25.7211 3.7292,-0.75 9.8271,-0.412 15.2028,1.591 z"
       id="path82"
       sodipodi:nodetypes="ccccccccccc" /><path
       style="fill:#5980ff;fill-opacity:1;stroke-width:1.333"
       d="m 2494.0558,950.03775 c -2.6811,-1.5615 -4.4783,-3.6534 -12.8163,-3.0936 -7.9628,0 -17.2358,6.6961 -17.2358,21.4784 0,13.9695 10.3023,18.9151 17.7661,18.9151 4.1248,0 7.5424,-0.088 12.3743,-3.182 v 5.5685 c -6.3345,1.9445 -10.3701,2.1213 -14.2305,2.1213 -12.3803,0 -21.4783,-8.8975 -21.4783,-23.4229 0,-11.8472 7.233,-25.7211 20.4177,-25.7211 3.7292,-0.75 9.8271,-0.412 15.2028,1.591 z"
       id="path83"
       sodipodi:nodetypes="ccccccccccc" /><path
       style="fill:#5980ff;fill-opacity:1;stroke-width:1.333"
       d="m 2110.3125,949.94485 v -5.625 c -3.4952,-1.6293 -7.4066,-2.6401 -11.2719,-2.0737 -4.4444,0.2716 -8.2535,0.818 -12.2786,4.8431 -1.7605,1.7605 -3.9431,4.6889 -3.9431,7.8497 0,4.3815 3.8821,8.0917 4.8712,9.0808 1.9107,1.9107 7.239,4.4603 12.6956,7.6107 3.517,2.0306 5.3622,3.2595 6.461,6.1626 0.9565,2.9635 -0.1065,6.6284 -3.0162,8.0733 -4.2651,2.4624 -9.4319,1.9706 -13.8515,0.4728 -2.3049,-0.8122 -4.4903,-1.9258 -6.604,-3.1443 v 6.5 c 5.7858,1.9366 12.0417,2.485 18.0899,1.7622 4.5019,-0.8329 5.7486,-1.9727 8.0673,-3.8593 3.0695,-2.7297 2.6728,-6.0402 2.6728,-9.4924 0,-1.7556 -0.8274,-4.169 -2.4203,-6.1402 -2.1151,-2.1879 -6.2787,-4.6825 -9.4988,-6.5416 -2.7241,-1.3758 -5.1511,-2.6445 -8.0812,-4.3362 -1.849,-1.0675 -3.5071,-2.9845 -3.5071,-6.9716 0.1408,-2.4276 2.5346,-5.5189 5.3129,-6.5393 4.4394,-1.9951 9.6986,-1.3659 13.8633,1.0165 0.8253,0.4279 1.6337,0.8872 2.4387,1.3519 z"
       id="path84"
       sodipodi:nodetypes="cccccccccccccccccccccc" /><path
       style="fill:#5980ff;fill-opacity:1;stroke-width:1.333"
       d="m 2615.851,949.94485 v -5.625 c -3.4952,-1.6293 -7.4066,-2.6401 -11.2719,-2.0737 -4.4444,0.2716 -8.2535,0.818 -12.2786,4.8431 -1.7605,1.7605 -3.9431,4.6889 -3.9431,7.8497 0,4.3815 3.8821,8.0917 4.8712,9.0808 1.9107,1.9107 7.239,4.4603 12.6956,7.6107 3.517,2.0306 5.3622,3.2595 6.461,6.1626 0.9565,2.9635 -0.1065,6.6284 -3.0162,8.0733 -4.2651,2.4624 -9.4319,1.9706 -13.8515,0.4728 -2.3049,-0.8122 -4.4903,-1.9258 -6.604,-3.1443 v 6.5 c 5.7858,1.9366 12.0417,2.485 18.0899,1.7622 4.5019,-0.8329 5.7486,-1.9727 8.0673,-3.8593 3.0695,-2.7297 2.6728,-6.0402 2.6728,-9.4924 0,-1.7556 -0.8274,-4.169 -2.4203,-6.1402 -2.1151,-2.1879 -6.2787,-4.6825 -9.4988,-6.5416 -2.7241,-1.3758 -5.1511,-2.6445 -8.0812,-4.3362 -1.849,-1.0675 -3.5071,-2.9845 -3.5071,-6.9716 0.1408,-2.4276 2.5346,-5.5189 5.3129,-6.5393 4.4394,-1.9951 9.6986,-1.3659 13.8633,1.0165 0.8253,0.4279 1.6337,0.8872 2.4387,1.3519 z"
       id="path85"
       sodipodi:nodetypes="cccccccccccccccccccccc" /><path
       style="fill:#5980ff;fill-opacity:1;stroke-width:1.333"
       d="m 1957.36,947.82805 h 13.6118 v 43.2219 h 5.6568 v -43.1335 h 14.1421 v -4.8614 h -33.3224 z"
       id="path86" /><path
       id="path87"
       style="fill:#5980ff;fill-opacity:1;stroke-width:1.333"
       d="m 2195.5664,942.08355 c -13.4645,0.059 -22.8926,9.4837 -22.8926,25.1015 0,15.441 7.6784,24.8379 22.0098,24.8379 2.1357,2.5705 4.3597,4.7875 6.8047,6.9824 1.5688,1.56875 5.215,4.02055 7.9551,4.77145 3.0935,0.5746 7.4687,0.7955 10.0761,0 v -5.21475 c -3.1451,1.0386 -6.5614,2.23325 -10.4297,0 -2.1873,-1.5536 -5.6342,-3.7701 -7.4238,-7.2461 10.0382,0 16.7051,-13.4575 16.7051,-23.4238 0,-14.7041 -7.4996,-25.8086 -22.8047,-25.8086 z m 0,5.2148 c 13.2715,0 17.2363,9.8365 17.2363,20.5938 0,12.8546 -6.8122,19.1797 -18.2089,19.1797 -8.8716,0 -16.1739,-6.2946 -16.1739,-19.7989 0,-13.5351 7.8835,-19.9746 17.1465,-19.9746 z"
       sodipodi:nodetypes="cccccccccccccccc" /><path
       style="fill:#5980ff;fill-opacity:1;stroke-width:1.333"
       d="m 2310.383,947.91645 h -4.5078 v -4.5962 h 14.6725 v 4.5078 h -4.773 v 39.0676 h 4.8614 v 3.8891 h -14.7609 v -3.8891 h 4.4194 z"
       id="path88" /><path
       style="fill:#5980ff;fill-opacity:1;stroke-width:1.333"
       d="m 2425.6414,947.91645 h -4.5078 v -4.5962 h 14.6725 v 4.5078 h -4.773 v 39.0676 h 4.8614 v 3.8891 h -14.7609 v -3.8891 h 4.4194 z"
       id="path89" /><path
       style="fill:#5980ff;fill-opacity:1;stroke-width:1.333"
       d="m 2346.0035,990.69635 h 5.5685 v -39.2444 l 17.6777,39.3328 h 2.8284 l 17.766,-39.598 v 39.598 h 5.3917 v -47.3761 h -6.9827 l -17.5008,38.6257 -17.4125,-38.5374 h -7.0711 z"
       id="path90" /></g></svg>
