<?xml version="1.0" encoding="UTF-8" standalone="no"?>
<!-- Created with Inkscape (http://www.inkscape.org/) -->

<svg
   version="1.1"
   id="svg1"
   width="3464"
   height="2911"
   viewBox="0 0 3464 2911"
   sodipodi:docname="ARDU HERMANOS - Logo_Mesa de trabajo 1 copia 15.svg"
   inkscape:version="1.3.2 (091e20e, 2023-11-25, custom)"
   inkscape:export-filename="..\..\..\..\Projects\Ardu Hermanos\public\images\logo\logo-2.svg"
   inkscape:export-xdpi="96"
   inkscape:export-ydpi="96"
   xml:space="preserve"
   xmlns:inkscape="http://www.inkscape.org/namespaces/inkscape"
   xmlns:sodipodi="http://sodipodi.sourceforge.net/DTD/sodipodi-0.dtd"
   xmlns="http://www.w3.org/2000/svg"
   xmlns:svg="http://www.w3.org/2000/svg"><defs
     id="defs1" /><sodipodi:namedview
     id="namedview1"
     pagecolor="#ffffff"
     bordercolor="#000000"
     borderopacity="0.25"
     inkscape:showpageshadow="2"
     inkscape:pageopacity="0.0"
     inkscape:pagecheckerboard="0"
     inkscape:deskcolor="#d1d1d1"
     showguides="false"
     inkscape:zoom="0.35355339"
     inkscape:cx="1446.7405"
     inkscape:cy="1378.8582"
     inkscape:window-width="1920"
     inkscape:window-height="1017"
     inkscape:window-x="-8"
     inkscape:window-y="-8"
     inkscape:window-maximized="1"
     inkscape:current-layer="g1" /><g
     inkscape:groupmode="layer"
     inkscape:label="Image"
     id="g1"><path
       id="path2"
       style="fill:#5980ff;fill-opacity:1;stroke-width:1.333"
       d="m 1130.8242,412.25781 c -22.1978,0.3608 -33.375,19.09961 -33.375,19.09961 L 846.10547,915.86719 c 0,0 -24.38896,33.19388 -3.75977,65.81445 13.32258,21.06666 41.36719,22.56446 41.36719,22.56446 l 281.43161,0.625 c 0,0 5.6297,0.01 5.6407,-6.89454 0.2754,-177.19452 -1.2539,-551.57617 -1.254,-551.57617 0,0 3.8486,-25.85176 -28.5195,-33.06445 -3.6205,-0.8067 -7.0164,-1.12963 -10.1875,-1.07813 z m -25.2265,145.08399 -0.627,382.9707 -196.18554,-1.25391 z" /><path
       style="fill:#ffffff;fill-opacity:1;stroke-width:1.333"
       d="m 1329.1157,412.56455 c 65.5818,0.082 103.8318,0.6811 163.5443,0.8864 5.2754,0.018 4.8753,4.8753 4.8753,4.8753 v 54.0715 c -4e-4,5.7978 -4.9861,4.9861 -4.9861,4.9861 h -104.4866 v 462.8216 c 0,0 71.5919,-0.047 105.2622,0 4.3092,0.01 3.9889,3.9889 3.9889,3.9889 0,0 -0.152,37.0533 -0.078,56.78225 0.016,4.2036 -3.689,4.159 -3.689,4.159 0,0 -113.1324,0.049 -166.6467,0 -3.7346,0 -3.7673,-3.7673 -3.7673,-3.7673 V 417.70965 c 0,0 0.062,-5.1525 5.9833,-5.1451 z"
       id="path46" /></g></svg>
